<svg width="24" height="24" viewBox="0 0 24 24" fill="none" xmlns="http://www.w3.org/2000/svg">
<path fill-rule="evenodd" clip-rule="evenodd" d="M20 12C19.9973 11.6047 19.9638 11.2101 19.9 10.82L21.9 9.17L19.4 4.83L17 5.75C16.3813 5.25108 15.69 4.84977 14.95 4.56L14.5 2H9.49996L9.06996 4.56C8.32373 4.84529 7.62563 5.24324 6.99996 5.74L4.57996 4.82L2.07996 9.15L4.07996 10.81C4.02272 11.204 3.99598 11.6019 3.99996 12C4.00447 12.4359 4.04461 12.8707 4.11996 13.3L2.11996 14.83L4.61996 19.17L6.94996 18.17C7.63017 18.7249 8.39709 19.1641 9.21996 19.47L9.49996 22H14.5L14.81 19.48C15.6394 19.1773 16.4107 18.7342 17.09 18.17L19.4 19.17L21.9 14.84L19.9 13.31C19.9648 12.8763 19.9982 12.4385 20 12V12Z" stroke="#808080" stroke-width="2" stroke-miterlimit="10"/>
<path d="M12 16C14.2091 16 16 14.2091 16 12C16 9.79086 14.2091 8 12 8C9.79086 8 8 9.79086 8 12C8 14.2091 9.79086 16 12 16Z" stroke="#808080" stroke-width="2" stroke-miterlimit="10"/>
</svg>
